<svg width="31" height="31" viewBox="0 0 31 31" fill="none" xmlns="http://www.w3.org/2000/svg">
<circle cx="15.5" cy="15.5" r="15.5" fill="#560C7B"/>
<path d="M22.0339 10.5894H9.51483L9.39407 10.1039C9.25989 9.48351 8.95798 8.97777 8.48835 8.58666C8.01871 8.19555 7.46186 8 6.8178 8H4.84534C4.60381 8 4.40254 8.08092 4.24153 8.24276C4.08051 8.40459 4 8.62038 4 8.8901C4 9.13286 4.08051 9.33516 4.24153 9.49699C4.40254 9.65883 4.60381 9.73975 4.84534 9.73975H6.8178C7.32768 9.73975 7.62288 9.96902 7.70339 10.4276L9.67585 20.7851C9.83686 21.3516 10.1522 21.8101 10.6218 22.1607C11.0915 22.5114 11.6081 22.6867 12.1716 22.6867H20.303C20.5713 22.6867 20.786 22.6058 20.947 22.444C21.1081 22.2821 21.1886 22.0798 21.1886 21.8371C21.1886 21.2437 20.8934 20.947 20.303 20.947H12.1716C11.7959 20.947 11.5275 20.7851 11.3665 20.4615L11.286 20.0973H19.9004C20.4371 20.0973 20.9269 19.9355 21.3697 19.6118C21.8125 19.2881 22.1144 18.8701 22.2754 18.3576L24.6102 13.3811V13.1788C24.6102 12.4505 24.3619 11.8369 23.8655 11.3379C23.369 10.8389 22.7585 10.5894 22.0339 10.5894ZM11.7288 18.3576H10.964L9.83686 12.3291H11.7288V18.3576ZM15.1504 18.3576H13.4597V12.3291H15.1504V18.3576ZM18.6123 18.3576H16.8814V12.3291H18.6123V18.3576ZM20.7458 17.6698V17.7507C20.6653 18.0204 20.5177 18.1957 20.303 18.2767V12.3291H22.0339C22.517 12.3291 22.7987 12.5584 22.8792 13.0169L20.7458 17.6698ZM14.3051 25.2761C14.3051 25.7616 14.1374 26.173 13.8019 26.5101C13.4665 26.8473 13.0572 27.0159 12.5742 27.0159C12.1179 27.0159 11.7221 26.8473 11.3867 26.5101C11.0512 26.173 10.8835 25.7616 10.8835 25.2761C10.8835 24.7906 11.0512 24.3793 11.3867 24.0421C11.7221 23.7049 12.1179 23.5364 12.5742 23.5364C13.0572 23.5364 13.4665 23.7049 13.8019 24.0421C14.1374 24.3793 14.3051 24.7906 14.3051 25.2761ZM21.1886 25.2761C21.1886 25.7616 21.0208 26.173 20.6854 26.5101C20.3499 26.8473 19.9407 27.0159 19.4576 27.0159C18.9746 27.0159 18.5653 26.8473 18.2299 26.5101C17.8944 26.173 17.7267 25.7616 17.7267 25.2761C17.7267 24.7906 17.8944 24.3793 18.2299 24.0421C18.5653 23.7049 18.9746 23.5364 19.4576 23.5364C19.9407 23.5364 20.3499 23.7049 20.6854 24.0421C21.0208 24.3793 21.1886 24.7906 21.1886 25.2761Z" fill="white"/>
</svg>
